<svg xmlns="http://www.w3.org/2000/svg" width="84" height="73" fill="none"><path fill="url(#a)" d="M76.944 6.454a21.79 21.79 0 0 0-7.075-4.777 21.616 21.616 0 0 0-16.692 0 21.79 21.79 0 0 0-7.075 4.777L41.9 10.698l-4.202-4.244A21.699 21.699 0 0 0 22.278.002 21.7 21.7 0 0 0 6.855 6.454 22.14 22.14 0 0 0 .47 22.029a22.14 22.14 0 0 0 6.387 15.576l4.202 4.244L41.9 73l30.842-31.151 4.202-4.244a22.04 22.04 0 0 0 4.729-7.146 22.215 22.215 0 0 0 0-16.86 22.039 22.039 0 0 0-4.729-7.145Z"/><defs><linearGradient id="a" x1="71.825" x2="23.779" y1="4.368" y2="51.936" gradientUnits="userSpaceOnUse"><stop stop-color="#00D894"/><stop offset="1" stop-color="#56E9CD"/></linearGradient></defs></svg>