<svg xmlns="http://www.w3.org/2000/svg" width="84" height="42" fill="none"><rect width="84" height="42" fill="url(#a)" rx="21"/><path fill="#fff" d="M36.065 23.207c.396-.823.352-1.897-.123-3.023-.839-1.99-2.284-3.127-3.514-2.765-1.228.362-1.729 2.04-1.247 4.174.26 1.154.86 2.053 1.686 2.532.396.23.82.348 1.235.348.205 0 .407-.029.603-.086a2.19 2.19 0 0 0 1.36-1.18ZM36.806 18.182c.492.447 1.085.686 1.69.686.065 0 .128-.002.193-.008.673-.056 1.285-.396 1.721-.957.61-.784.82-1.924.59-3.211-.408-2.287-1.66-3.802-3.045-3.686-1.38.116-2.31 1.78-2.314 4.138-.003 1.273.411 2.351 1.165 3.038ZM51.572 17.42c-1.23-.363-2.675.774-3.514 2.764-.475 1.126-.519 2.2-.123 3.024a2.19 2.19 0 0 0 1.36 1.179c.196.057.398.086.603.086.415 0 .84-.118 1.235-.348.827-.48 1.425-1.379 1.686-2.532.482-2.135-.02-3.812-1.247-4.174ZM45.31 18.86c.065.006.129.008.193.008.605 0 1.199-.24 1.69-.686.754-.687 1.169-1.765 1.166-3.038-.005-2.359-.935-4.022-2.314-4.138-1.384-.116-2.637 1.4-3.045 3.686-.23 1.287-.02 2.427.59 3.211.436.56 1.047.9 1.72.957ZM47.222 25.028c-1.635-1.191-2.302-3.015-2.308-3.033l-.003-.008c-.918-2.23-2.587-2.32-2.908-2.314-.326-.005-1.996.084-2.915 2.316-.007.02-.792 1.973-2.307 3.037-1.231.865-2.312 2.501-1.652 4.503.019.066.231.755.852 1.341 1.07 1.01 2.478.903 3.472.635l.007-.002c.01-.003.974-.303 1.827-.517a2.94 2.94 0 0 1 1.426 0 39.66 39.66 0 0 1 1.828.517l.006.002c.482.13.913.185 1.296.185 1.048 0 1.744-.411 2.176-.82.62-.586.833-1.276.853-1.341.812-2.468-1.057-4.069-1.65-4.5Z"/><defs><linearGradient id="a" x1="84" x2="0" y1="21" y2="21" gradientUnits="userSpaceOnUse"><stop stop-color="#FA695A"/><stop offset="1" stop-color="#F83375"/></linearGradient></defs></svg>